<svg height="512pt" viewBox="0 -20 512.00099 512" width="512pt" xmlns="http://www.w3.org/2000/svg"><path d="m460.875 220.882812c0-18.136718 32.859375-40.34375 28.390625-57.070312-4.625-17.304688-44.316406-20.09375-53.085937-35.242188-8.890626-15.371093 8.445312-51.117187-4.03125-63.589843-12.472657-12.472657-48.214844 4.863281-63.585938-4.03125-15.152344-8.765625-17.9375-48.457031-35.246094-53.082031-16.722656-4.46875-38.929687 28.386718-57.066406 28.386718s-40.339844-32.855468-57.066406-28.386718c-17.308594 4.625-20.09375 44.316406-35.246094 53.082031-15.371094 8.894531-51.113281-8.441407-63.585938 4.03125-12.472656 12.476562 4.863282 48.21875-4.03125 63.589843-8.765624 15.148438-48.457031 17.9375-53.082031 35.242188-4.472656 16.726562 28.386719 38.933594 28.386719 57.070312 0 18.132813-32.859375 40.339844-28.386719 57.066407 4.625 17.304687 44.316407 20.09375 53.082031 35.246093 8.890626 15.367188-8.441406 51.113282 4.03125 63.585938 12.472657 12.472656 48.214844-4.863281 63.585938 4.03125 15.152344 8.765625 17.9375 48.457031 35.246094 53.082031 16.726562 4.472657 38.929687-28.386719 57.066406-28.386719s40.34375 32.859376 57.066406 28.386719c17.308594-4.625 20.09375-44.316406 35.246094-53.082031 15.371094-8.894531 51.113281 8.441406 63.585938-4.03125 12.476562-12.472656-4.859376-48.21875 4.03125-63.585938 8.769531-15.152343 48.460937-17.941406 53.085937-35.246093 4.46875-16.726563-28.390625-38.933594-28.390625-57.066407zm0 0" fill="#ffee8c"/><path d="m418.78125 220.878906c0 71.992188-53.375 131.519532-122.71875 141.164063-6.472656.902343-13.085938 1.367187-19.808594 1.367187-78.71875 0-142.539062-63.8125-142.539062-142.53125 0-78.714844 63.820312-142.527344 142.539062-142.527344 6.722656 0 13.335938.460938 19.808594 1.367188 69.34375 9.644531 122.71875 69.167969 122.71875 141.160156zm0 0" fill="#f28f44"/><path d="m418.78125 220.878906c0 71.992188-53.375 131.519532-122.71875 141.164063-69.34375-9.644531-122.71875-69.171875-122.71875-141.164063 0-71.992187 53.375-131.515625 122.71875-141.160156 69.34375 9.644531 122.71875 69.167969 122.71875 141.160156zm0 0" fill="#ffd073"/><path d="m498.894531 392.582031c-3.5-3.5-8.332031-5.664062-13.679687-5.664062h-43.640625c-10.671875 0-19.332031-8.660157-19.332031-19.339844 0-5.347656-2.160157-10.175781-5.664063-13.679687-3.5-3.5-8.339844-5.664063-13.675781-5.664063h-114.941406c-10.679688 0-19.339844-8.65625-19.339844-19.339844 0-5.347656 2.164062-10.175781 5.664062-13.679687 3.5-3.5 8.339844-5.664063 13.675782-5.664063h157.777343c10.683594 0 19.34375-8.65625 19.34375-19.339843 0-10.683594-8.660156-19.339844-19.34375-19.339844h-339.160156c-10.683594 0-19.339844 8.65625-19.339844 19.339844 0 5.347656 2.160157 10.175781 5.664063 13.679687 3.5 3.5 8.332031 5.660156 13.675781 5.660156h21.207031c10.683594 0 19.339844 8.660157 19.339844 19.34375 0 5.347657-2.160156 10.175781-5.660156 13.675781-3.503906 3.503907-8.332032 5.664063-13.679688 5.664063h-68.0625c-10.671875 0-19.332031 8.660156-19.332031 19.34375 0 5.34375 2.164063 10.175781 5.664063 13.675781 3.5 3.503906 8.332031 5.664063 13.667968 5.664063h102.660156c10.679688 0 19.339844 8.660156 19.339844 19.34375 0 5.335937-2.160156 10.164062-5.664062 13.667969-3.5 3.5-8.332032 5.664062-13.675782 5.664062h-135.601562c-10.679688 0-19.339844 8.65625-19.339844 19.339844 0 5.335937 2.160156 10.175781 5.664063 13.679687 3.5 3.5 8.339843 5.660157 13.675781 5.660157h308.175781c10.683594 0 19.34375-8.65625 19.34375-19.339844 0-5.335938 2.160157-10.175782 5.660157-13.679688 3.503906-3.5 8.34375-5.660156 13.679687-5.660156h111.574219c10.683594 0 19.34375-8.660156 19.34375-19.332031 0-5.347657-2.164063-10.179688-5.664063-13.679688zm-201.738281 31.53125h-52.210938c-5.335937 0-10.167968-2.160156-13.667968-5.664062-3.5-3.5-5.664063-8.332031-5.664063-13.675781 0-10.683594 8.660157-19.34375 19.332031-19.34375h52.210938c5.347656 0 10.175781 2.164062 13.679688 5.664062 3.5 3.503906 5.664062 8.332031 5.664062 13.679688 0 10.679687-8.660156 19.339843-19.34375 19.339843zm0 0" fill="#d3ddea"/><path d="m241.808594 186.984375c-14.96875-14.96875-39.324219-14.972656-54.296875 0-2.902344 2.902344-2.902344 7.613281 0 10.519531 2.90625 2.902344 7.617187 2.902344 10.523437 0 4.441406-4.441406 10.34375-6.886718 16.625-6.886718s12.1875 2.445312 16.625 6.886718c1.453125 1.453125 3.359375 2.179688 5.261719 2.179688 1.90625 0 3.808594-.726563 5.261719-2.179688 2.90625-2.90625 2.90625-7.617187 0-10.519531zm0 0"/><path d="m310.691406 186.984375c-2.902344 2.902344-2.902344 7.613281 0 10.519531 2.90625 2.902344 7.617188 2.902344 10.523438 0 4.4375-4.441406 10.34375-6.886718 16.625-6.886718s12.183594 2.445312 16.625 6.886718c1.453125 1.453125 3.355468 2.179688 5.261718 2.179688 1.902344 0 3.808594-.726563 5.261719-2.179688 2.902344-2.90625 2.902344-7.617187 0-10.519531-14.972656-14.972656-39.328125-14.972656-54.296875 0zm0 0"/><path d="m485.21875 379.476562h-43.640625c-.640625 0-1.265625-.066406-1.875-.164062 6.558594-9.351562 4.679687-23.191406 2.855469-36.613281-1.320313-9.703125-2.8125-20.691407.023437-25.707031h3.15625c10.460938 0 19.535157-6.03125 23.941407-14.796876 10.652343-4.429687 23.636718-10.609374 26.769531-22.320312 3.308593-12.378906-6.03125-24.433594-15.0625-36.089844-6.128907-7.90625-13.074219-16.867187-13.074219-22.90625 0-6.03125 6.945312-14.992187 13.074219-22.898437 9.03125-11.65625 18.371093-23.710938 15.0625-36.082031-3.429688-12.847657-17.882813-18.730469-31.859375-24.417969-8.988282-3.660157-19.175782-7.808594-21.972656-12.636719-2.882813-4.992188-1.382813-16.035156-.058594-25.777344 2.011718-14.800781 4.089844-30.101562-5.148438-39.351562-6.707031-6.703125-16.636718-7.09375-23.519531-6.808594-4.105469.171875-7.296875 3.636719-7.125 7.742188.171875 4.105468 3.640625 7.308593 7.742187 7.125 6.316407-.265626 10.484376.566406 12.378907 2.464843 4.027343 4.027344 2.378906 16.140625.929687 26.824219-1.726562 12.699219-3.511718 25.832031 1.921875 35.230469 5.347657 9.242187 17.496094 14.1875 29.242188 18.96875 10.113281 4.113281 21.574219 8.78125 23.097656 14.480469 1.402344 5.25-6.28125 15.160156-12.453125 23.125-7.957031 10.273437-16.1875 20.894531-16.1875 32.015624 0 11.128907 8.230469 21.75 16.1875 32.019532 6.171875 7.964844 13.855469 17.878906 12.453125 23.128906-.878906 3.269531-5.160156 6.246094-10.105469 8.785156-2.507812-12.1875-13.316406-21.378906-26.234375-21.378906h-25.648437c4.070312-13.75 6.128906-28.019531 6.128906-42.554688 0-36.414062-13.210938-71.523437-37.199219-98.867187-23.765625-27.082031-56.414062-44.722656-91.925781-49.664063-6.855469-.957031-13.871094-1.441406-20.847656-1.441406-82.691406 0-149.96875 67.277344-149.96875 149.972656 0 14.535157 2.058594 28.804688 6.128906 42.554688h-25.828125c-12.882813 0-23.667969 9.144531-26.210937 21.28125-4.828126-2.507812-9.085938-5.476562-9.945313-8.679688-1.402344-5.257812 6.277344-15.167968 12.449219-23.132812 7.957031-10.273438 16.1875-20.894531 16.1875-32.023438 0-11.125-8.226563-21.746093-16.1875-32.015624-6.171875-7.964844-13.851563-17.878907-12.449219-23.125 1.523437-5.699219 12.984375-10.363282 23.097656-14.480469 11.746094-4.78125 23.890625-9.726563 29.238281-18.964844 5.441407-9.402344 3.65625-22.539063 1.925782-35.242187-1.453125-10.683594-3.097656-22.792969.921875-26.8125 4.027343-4.023438 16.136719-2.378907 26.816406-.925782 12.703125 1.730469 25.839844 3.515625 35.238281-1.925781 9.242188-5.34375 14.1875-17.492187 18.96875-29.238281 4.113282-10.113282 8.78125-21.574219 14.472656-23.097656 5.253907-1.402344 15.164063 6.28125 23.128907 12.449218 10.273437 7.960938 20.894531 16.1875 32.015625 16.1875 11.128906 0 21.753906-8.230468 32.023437-16.1875 7.964844-6.171875 17.882813-13.851562 23.125-12.453125 5.691407 1.527344 10.355469 12.984375 14.46875 23.09375 4.785157 11.75 9.730469 23.898438 18.972657 29.246094 7.117187 4.121094 16.25 3.949219 23.410156 3.335937 4.097656-.347656 7.132812-3.949218 6.785156-8.042968-.351562-4.089844-3.960938-7.132813-8.042969-6.78125-2.652343.226562-10.71875.914062-14.703125-1.390625-4.832031-2.796875-8.980468-12.984375-12.640625-21.976563-5.683593-13.96875-11.5625-28.417968-24.40625-31.855468-12.371093-3.300782-24.425781 6.035156-36.082031 15.0625-7.90625 6.128906-16.871094 13.074218-22.910156 13.074218-6.03125 0-14.996094-6.945312-22.902344-13.074218-11.65625-9.027344-23.707031-18.363282-36.082031-15.0625-12.84375 3.4375-18.726563 17.886718-24.414063 31.863281-3.660156 8.988281-7.808594 19.175781-12.640625 21.972656-4.992187 2.886719-16.035156 1.386719-25.78125.058594-14.792969-2.011719-30.097656-4.09375-39.34375 5.148437-9.234375 9.242188-7.152343 24.542969-5.140625 39.339844 1.324219 9.742188 2.828125 20.789062-.0625 25.78125-2.796875 4.832031-12.984375 8.980469-21.96875 12.640625-13.976562 5.6875-28.425781 11.566406-31.863281 24.417969-3.300781 12.371094 6.035156 24.421875 15.066406 36.078125 6.125 7.90625 13.070313 16.871093 13.070313 22.902343 0 6.039063-6.945313 15.003907-13.074219 22.910157-9.027344 11.652343-18.363281 23.703125-15.0625 36.089843 3.136719 11.683594 15.984375 17.820313 26.539063 22.214844 4.386718 8.820313 13.488281 14.898438 23.992187 14.898438h3.339844c2.65625 4.695312 1.523437 14.601562.28125 23.800781h-50.472657c-14.765624 0-26.78125 12.015625-26.78125 26.78125s12.015626 26.78125 26.78125 26.78125h102.652344c6.5625 0 11.902344 5.335937 11.902344 11.898437s-5.339844 11.902344-11.902344 11.902344h-135.597656c-14.769531-.003906-26.78125 12.011719-26.78125 26.777344s12.011719 26.78125 26.78125 26.78125h65.109375c4.109375 0 7.4375-3.332031 7.4375-7.441406s-3.328125-7.4375-7.4375-7.4375h-65.109375c-6.5625 0-11.902344-5.339844-11.902344-11.902344s5.339844-11.902344 11.902344-11.902344h135.597656c14.769532 0 26.78125-12.011718 26.78125-26.777344 0-14.765624-12.011718-26.78125-26.78125-26.78125h-102.652344c-6.5625 0-11.902343-5.339843-11.902343-11.902343s5.339843-11.902344 11.902343-11.902344h68.058594c14.765625 0 26.777344-12.011719 26.777344-26.777344s-12.011719-26.78125-26.777344-26.78125h-21.207031c-6.5625 0-11.902344-5.339843-11.902344-11.898437 0-6.5625 5.339844-11.902344 11.902344-11.902344h339.160156c6.5625 0 11.902344 5.339844 11.902344 11.902344 0 6.558594-5.339844 11.898437-11.902344 11.898437h-157.78125c-14.765625 0-26.777343 12.015625-26.777343 26.78125s12.011718 26.777344 26.777343 26.777344h114.941407c6.5625 0 11.898437 5.339844 11.898437 11.902344 0 14.765625 12.015625 26.78125 26.78125 26.78125h43.640625c6.5625 0 11.902344 5.339843 11.902344 11.902343s-5.339844 11.898438-11.902344 11.898438h-111.582031c-14.765625 0-26.777344 12.015625-26.777344 26.78125 0 6.5625-5.339844 11.902344-11.902344 11.902344h-213.308593c-4.109376 0-7.441407 3.328125-7.441407 7.4375s3.332031 7.441406 7.441407 7.441406h213.308593c14.769531 0 26.78125-12.015625 26.78125-26.78125 0-6.5625 5.339844-11.902344 11.902344-11.902344h111.582031c14.765625 0 26.777344-12.011718 26.777344-26.777344 0-14.765624-12.011719-26.78125-26.78125-26.78125zm-345.535156-50.582031c0 6.5625-5.335938 11.902344-11.898438 11.902344h-2.578125c1.089844-8.320313 1.878907-16.636719.351563-23.804687h2.226562c6.5625 0 11.898438 5.339843 11.898438 11.902343zm1.472656-108.015625c0-74.492187 60.601562-135.09375 135.09375-135.09375 6.289062 0 12.609375.4375 18.789062 1.300782 31.980469 4.449218 61.382813 20.339843 82.796876 44.742187 21.605468 24.625 33.503906 56.25 33.503906 89.050781 0 14.597656-2.304688 28.886719-6.84375 42.554688h-256.496094c-4.539062-13.667969-6.84375-27.957032-6.84375-42.554688zm134.898438 108.015625c0-6.5625 5.339843-11.902343 11.902343-11.902343h83.1875c-9.640625 9.503906-20.710937 17.585937-32.660156 23.804687h-50.527344c-6.5625 0-11.902343-5.339844-11.902343-11.902344zm126.84375 11.902344h-36.632813c9.238281-6.953125 17.703125-14.957031 25.101563-23.804687h35.574218c-1.761718 8.289062-.429687 18.121093.875 27.710937.875 6.433594 1.808594 13.371094 1.542969 18.761719-1.984375-12.824219-13.09375-22.667969-26.460937-22.667969zm0 0"/><path d="m297.25 225.957031c-11.582031 11.578125-30.421875 11.578125-42 0-2.90625-2.90625-7.617188-2.902343-10.519531 0-2.90625 2.90625-2.90625 7.617188 0 10.519531 8.6875 8.691407 20.105469 13.035157 31.519531 13.035157s22.828125-4.34375 31.515625-13.035157c2.90625-2.902343 2.90625-7.613281.003906-10.519531-2.90625-2.902343-7.617187-2.902343-10.519531 0zm0 0"/><path d="m297.15625 431.554688c14.769531 0 26.78125-12.015626 26.78125-26.78125 0-7.15625-2.785156-13.882813-7.84375-18.941407-5.054688-5.054687-11.78125-7.839843-18.9375-7.839843h-52.210938c-14.761718 0-26.769531 12.011718-26.769531 26.78125 0 7.15625 2.785157 13.878906 7.839844 18.9375 5.058594 5.058593 11.78125 7.84375 18.929687 7.84375zm-64.105469-26.78125c0-6.5625 5.335938-11.902344 11.894531-11.902344h52.210938c3.183594 0 6.171875 1.238281 8.417969 3.484375 2.246093 2.246093 3.484375 5.234375 3.484375 8.417969 0 6.5625-5.339844 11.902343-11.902344 11.902343h-52.210938c-3.175781 0-6.160156-1.238281-8.410156-3.484375-2.246094-2.25-3.484375-5.238281-3.484375-8.417968zm0 0"/></svg>