<svg id="Capa_1" enable-background="new 0 0 512.033 512.033" height="512" viewBox="0 0 512.033 512.033" width="512" xmlns="http://www.w3.org/2000/svg"><g><g><g clip-rule="evenodd" fill-rule="evenodd"><path d="m109.396 238.016c47.004-94.645 133.022 62.658 218.456 17.226 13.335 29.639 22.588 58.862 22.588 83.395 0 75.062-60.836 135.896-135.898 135.896s-135.898-60.834-135.898-135.896c0-29.282 13.182-65.244 30.752-100.621zm105.146-224.163c-68 105.6-165.898 233.163-165.898 324.784s74.276 165.896 165.898 165.896 165.898-74.276 165.898-165.896c0-95.249-113.672-243.68-165.898-324.784z" fill="#e5ecf5"/><path d="m327.852 255.242c-85.435 45.432-171.452-111.871-218.456-17.226-17.57 35.377-30.752 71.339-30.752 100.621 0 75.062 60.836 135.896 135.898 135.896s135.898-60.834 135.898-135.896c0-24.534-9.253-53.756-22.588-83.395z" fill="#b6e6fa"/><path d="m323.349 182.101c32.793 56.326 57.091 110.891 57.091 156.535 45.811 0 82.949-37.138 82.949-82.948 0-45.811-48.949-109.592-82.949-162.392-18.002 27.956-40.194 58.991-57.091 88.805z" fill="#b6e6fa"/><path d="m323.349 182.101c32.793 56.326 57.091 110.891 57.091 156.535 7.779 0 15.308-1.073 22.448-3.076-1.117-52.18-30.393-115.162-66.178-175.73-4.683 7.455-9.184 14.901-13.361 22.271z" fill="#8bb3d8"/><path d="m225.791 31.13c-3.823-5.817-7.58-11.579-11.249-17.277-68 105.6-165.898 233.163-165.898 324.784 0 96.195 81.375 171.925 177.148 165.508-86.374-5.786-154.648-77.67-154.648-165.508 0-86.679 87.616-205.522 154.647-307.507z" fill="#b0c5e0"/><path d="m161.304 208.632c-20.111-4.734-37.774.926-51.908 29.384-17.57 35.377-30.752 71.339-30.752 100.621 0 79.651 68.003 141.911 147.148 135.43-69.796-5.719-124.648-64.156-124.648-135.43 0-29.282 13.182-65.244 30.752-100.621 8.581-17.278 18.467-26.131 29.408-29.384z" fill="#8bb3d8"/></g><g><path d="m273.281 161.37h-15v-15h15zm-15-29.999h-15v-15h15z" fill="#fff"/></g></g><g><path d="m331.405 244.858-7.074 3.761c-36.371 19.341-73.383-2.077-109.174-22.791-28.086-16.254-54.612-31.606-78.645-24.368-13.718 4.132-24.784 14.999-33.833 33.219-21.22 42.725-31.535 76.729-31.535 103.957 0 79.069 64.328 143.396 143.397 143.396 79.07 0 143.398-64.327 143.398-143.396 0-23.088-7.822-52.182-23.248-86.472zm-116.863 222.175c-70.799 0-128.397-57.598-128.397-128.396 0-24.514 10.083-57.245 29.969-97.285 7.105-14.307 15.193-22.657 24.726-25.529 2.692-.811 5.521-1.185 8.47-1.185 16.567 0 36.948 11.795 58.335 24.173 26.76 15.487 56.063 32.449 86.542 32.447 9.857 0 19.841-1.774 29.896-5.947 12.519 29.26 18.858 53.901 18.858 73.326-.001 70.798-57.6 128.396-128.399 128.396z"/><path d="m470.888 255.688c0-21.41-9.476-47.618-29.82-82.479l-12.955 7.561c18.949 32.471 27.775 56.277 27.775 74.919 0 39.15-29.976 71.421-68.18 75.092-1.877-33.729-15.669-74.415-42.023-124.029-4.343-8.176-8.927-16.404-13.686-24.663 10.888-18.795 23.779-38.077 36.271-56.763 4.201-6.285 8.252-12.343 12.169-18.293 3.919 5.953 7.973 12.016 12.177 18.305 9.354 13.992 19.026 28.46 27.859 42.743l12.758-7.89c-8.974-14.509-18.721-29.09-28.147-43.19-6.464-9.668-12.568-18.8-18.341-27.765l-6.306-9.792-6.306 9.792c-5.771 8.961-11.872 18.089-18.333 27.753-11.04 16.514-22.367 33.487-32.481 50.331-20.336-33.988-43.297-68.352-65.723-101.896-12.944-19.362-25.17-37.65-36.749-55.631l-6.305-9.793-6.306 9.792c-11.579 17.981-23.805 36.269-36.749 55.631-31.151 46.595-63.362 94.775-88.089 141.327-28.433 53.527-42.254 96.668-42.254 131.886 0 95.611 77.786 173.396 173.397 173.396 43.397 0 84.928-16.114 116.941-45.374l-10.119-11.072c-29.243 26.727-67.18 41.446-106.822 41.446-87.341 0-158.397-71.056-158.397-158.396 0-73.697 67.902-175.265 127.813-264.877 10.66-15.946 20.836-31.167 30.585-46.118 9.749 14.951 19.925 30.172 30.585 46.118 59.91 89.612 127.813 191.18 127.813 264.877 0 39.641-14.719 77.577-41.446 106.821l11.072 10.119c27.637-30.24 43.538-68.969 45.218-109.74 46.451-3.749 83.104-42.747 83.104-90.148z"/><path d="m182.722 339.008c6.011 0 11.66-2.341 15.91-6.59 8.771-8.773 8.771-23.046 0-31.819-4.25-4.25-9.899-6.59-15.91-6.59-6.01 0-11.659 2.34-15.909 6.59s-6.591 9.9-6.591 15.91 2.341 11.66 6.591 15.91c4.25 4.248 9.9 6.589 15.909 6.589zm-5.303-27.803c1.417-1.417 3.301-2.197 5.304-2.197 2.004 0 3.887.78 5.303 2.197 2.925 2.924 2.925 7.682 0 10.606-1.416 1.417-3.299 2.197-5.303 2.197-2.003 0-3.887-.78-5.304-2.197-1.416-1.417-2.196-3.3-2.196-5.303s.78-3.886 2.196-5.303z"/><path d="m246.361 357.646c-6.01 0-11.66 2.341-15.91 6.591-8.771 8.773-8.771 23.047 0 31.819 4.25 4.25 9.9 6.59 15.91 6.59s11.66-2.34 15.909-6.59c4.25-4.25 6.591-9.9 6.591-15.91s-2.341-11.66-6.59-15.91c-4.25-4.249-9.9-6.59-15.91-6.59zm5.303 27.804c-2.924 2.924-7.681 2.924-10.606 0h.001c-2.925-2.924-2.924-7.683 0-10.607 1.416-1.417 3.3-2.197 5.303-2.197s3.887.78 5.303 2.197c1.417 1.417 2.197 3.3 2.197 5.304-.001 2.003-.781 3.886-2.198 5.303z"/><path d="m153.054 342.315h120v15h-120z" transform="matrix(.707 -.707 .707 .707 -184.954 253.112)"/></g></g></svg>