<svg id="Capa_1" enable-background="new 0 0 511.989 511.989" height="512" viewBox="0 0 511.989 511.989" width="512" xmlns="http://www.w3.org/2000/svg"><g><g><path d="m459.863 363.588c-91.786 52.993-209.153 21.545-262.146-70.242s-21.545-209.153 70.242-262.146c14.234-8.218 29.085-14.401 44.214-18.648-57.424-11.753-119.206-3.367-173.96 28.246-118.84 68.612-159.557 220.571-90.946 339.41s220.571 159.557 339.41 90.945c54.754-31.612 92.908-80.924 111.442-136.531-11.242 10.979-24.022 20.748-38.256 28.966z" fill="#ffe07d"/></g><g><path d="m459.863 363.588c-91.786 52.993-209.153 21.545-262.146-70.242s-21.545-209.153 70.242-262.146c14.234-8.218 29.085-14.401 44.214-18.648-57.424-11.753-119.206-3.367-173.96 28.246-118.84 68.612-159.557 220.571-90.946 339.41s220.571 159.557 339.41 90.945c54.754-31.612 92.908-80.924 111.442-136.531-11.242 10.979-24.022 20.748-38.256 28.966z" fill="#ffe07d"/></g><g><path d="m459.863 363.588c-78.94 45.576-176.799 28.692-236.357-35.316-51.621 45.735-112.441 69.758-167.505 65.946 72.121 107.928 216.64 142.774 330.677 76.935 54.754-31.613 92.908-80.924 111.442-136.531-11.243 10.979-24.023 20.748-38.257 28.966z" fill="#ffd064"/></g><g><path d="m332.909 176.574 10.337-4.43-10.337-4.43c-15.91-6.819-28.146-20.116-33.619-36.538l-6.545-19.634-6.545 19.634c-5.474 16.422-17.709 29.719-33.619 36.538l-10.337 4.43 10.337 4.43c15.91 6.819 28.146 20.116 33.619 36.538l6.545 19.634 6.545-19.634c5.474-16.422 17.709-29.72 33.619-36.538z" fill="#ffd064"/></g><g><path d="m432.949 279.72 8.27-3.544-8.27-3.544c-12.728-5.455-22.516-16.093-26.896-29.23l-5.236-15.707-5.236 15.707c-4.379 13.137-14.167 23.775-26.896 29.23l-8.27 3.544 8.27 3.544c12.728 5.455 22.516 16.093 26.896 29.23l5.236 15.707 5.236-15.707c4.38-13.137 14.168-23.775 26.896-29.23z" fill="#ffd064"/></g><g><path d="m442.087 134.401 6.202-2.658-6.202-2.658c-9.546-4.091-16.887-12.07-20.172-21.923l-3.927-11.78-3.927 11.78c-3.284 9.853-10.625 17.831-20.172 21.923l-6.202 2.658 6.202 2.658c9.546 4.091 16.887 12.07 20.172 21.923l3.927 11.78 3.927-11.78c3.284-9.854 10.625-17.832 20.172-21.923z" fill="#ffd064"/></g><g><path d="m502.098 328.269c-2.934-1.838-6.745-1.428-9.221.991-10.966 10.712-23.337 20.075-36.77 27.83-42.653 24.632-92.345 31.178-139.925 18.427-47.578-12.748-87.343-43.263-111.97-85.922-17.657-30.583-26.146-65.304-24.549-100.409 1.556-34.193 12.514-67.206 31.69-95.47 2.326-3.428 1.433-8.092-1.995-10.417-3.427-2.324-8.091-1.432-10.417 1.995-20.733 30.558-32.581 66.247-34.263 103.21-1.728 37.973 7.451 75.522 26.543 108.591 26.63 46.129 69.63 79.125 121.078 92.911 51.45 13.786 105.185 6.71 151.308-19.926 5.656-3.265 11.139-6.796 16.426-10.573-20.849 43.871-54.581 80.592-97.106 105.152-42.528 24.555-90.777 35.466-139.536 31.551-47.64-3.824-92.599-21.404-130.017-50.84-3.255-2.56-7.971-2-10.532 1.258-2.561 3.255-1.998 7.971 1.257 10.531 39.746 31.268 87.497 49.941 138.091 54.003 6.877.552 13.743.826 20.588.826 44.716 0 88.472-11.719 127.649-34.339 54.246-31.329 95.017-81.28 114.804-140.653 1.097-3.283-.199-6.89-3.133-8.727z"/><path d="m141.958 47.291c42.532-24.552 91.19-35.399 139.611-31.52-5.912 2.688-11.707 5.667-17.361 8.929-15.52 8.962-29.716 19.907-42.194 32.534-2.912 2.945-2.884 7.694.062 10.606 2.946 2.91 7.695 2.882 10.606-.063 11.536-11.673 24.667-21.796 39.024-30.086 13.436-7.752 27.73-13.778 42.486-17.914 3.333-.935 5.595-4.029 5.471-7.488-.123-3.46-2.599-6.387-5.99-7.081-61.315-12.56-124.961-2.226-179.215 29.093-59.21 34.183-101.564 89.38-119.258 155.422-17.694 66.04-8.612 135.021 25.573 194.232 10.262 17.775 22.596 34.255 36.662 48.98 1.474 1.542 3.447 2.319 5.424 2.319 1.862 0 3.727-.689 5.179-2.076 2.996-2.861 3.104-7.609.243-10.604-13.24-13.861-24.854-29.378-34.518-46.119-32.182-55.742-40.731-120.681-24.075-182.851 16.658-62.171 56.53-114.133 112.27-146.313z"/><path d="m316.807 158.157c-2.313 3.437-1.403 8.097 2.033 10.41 1.916 1.289 3.912 2.485 5.97 3.58-14.841 7.895-26.309 21.061-32.066 36.955-5.747-15.891-17.218-29.059-32.069-36.957 14.851-7.899 26.323-21.069 32.07-36.961.417 1.149.863 2.282 1.331 3.383 1.62 3.812 6.021 5.592 9.835 3.972 3.812-1.619 5.59-6.022 3.971-9.835-.543-1.278-1.028-2.559-1.478-3.898l-6.54-19.63c-1.021-3.062-3.886-5.129-7.114-5.13-.001 0-.001 0-.002 0-3.227 0-6.093 2.064-7.114 5.126l-6.552 19.634c-4.788 14.374-15.526 26.044-29.46 32.018l-10.33 4.43c-2.757 1.182-4.544 3.893-4.544 6.893s1.787 5.711 4.544 6.893l10.331 4.431c13.937 5.975 24.674 17.644 29.461 32.021l6.55 19.63c1.021 3.062 3.887 5.126 7.114 5.126h.002c3.228-.001 6.093-2.067 7.114-5.13l6.539-19.627c4.796-14.379 15.534-26.05 29.458-32.019l10.34-4.431c2.758-1.181 4.547-3.893 4.547-6.894s-1.789-5.713-4.547-6.894l-10.341-4.431c-3.039-1.301-5.947-2.882-8.644-4.697-3.435-2.314-8.095-1.405-10.409 2.032z"/><path d="m357.463 283.069 8.269 3.544c10.75 4.607 19.037 13.613 22.735 24.709l5.236 15.707c1.021 3.062 3.887 5.128 7.115 5.128 3.229 0 6.094-2.065 7.115-5.129l5.235-15.706c3.699-11.096 11.985-20.102 22.734-24.709l8.27-3.544c2.758-1.182 4.546-3.894 4.546-6.894s-1.788-5.712-4.546-6.894l-8.27-3.544c-10.75-4.607-19.036-13.613-22.735-24.709l-5.235-15.706c-1.021-3.062-3.887-5.128-7.115-5.128s-6.094 2.065-7.115 5.128l-5.236 15.707c-3.698 11.095-11.984 20.101-22.734 24.708l-8.27 3.544c-2.758 1.182-4.546 3.894-4.546 6.894s1.789 5.712 4.547 6.894zm43.355-32.428c4.699 10.66 12.617 19.591 22.599 25.534-9.981 5.943-17.899 14.874-22.599 25.534-4.699-10.66-12.618-19.591-22.599-25.534 9.981-5.943 17.9-14.874 22.599-25.534z"/><path d="m384.733 138.637 6.203 2.658c7.57 3.244 13.406 9.586 16.011 17.4l3.927 11.78c1.021 3.062 3.887 5.128 7.115 5.128 3.229 0 6.094-2.065 7.115-5.129l3.926-11.779c2.605-7.814 8.44-14.156 16.011-17.4l6.202-2.658c2.757-1.182 4.545-3.894 4.545-6.894s-1.788-5.712-4.545-6.894l-6.202-2.658c-7.571-3.245-13.407-9.588-16.011-17.4l-3.926-11.78c-1.021-3.063-3.887-5.129-7.115-5.129s-6.094 2.065-7.115 5.128l-3.927 11.78c-2.604 7.813-8.44 14.156-16.011 17.401l-6.202 2.658c-2.757 1.182-4.545 3.894-4.545 6.894s1.787 5.712 4.544 6.894zm33.255-21.821c3.279 5.951 7.9 11.065 13.483 14.927-5.583 3.861-10.204 8.974-13.482 14.926-3.279-5.952-7.9-11.064-13.483-14.926 5.582-3.861 10.204-8.976 13.482-14.927z"/></g></g></svg>