<svg id="Capa_1" enable-background="new 0 0 511.096 511.096" height="512" viewBox="0 0 511.096 511.096" width="512" xmlns="http://www.w3.org/2000/svg"><g><g><path d="m265.9 165.869c.437-4.34.664-8.739.664-13.189-.001-65.561-47.854-119.94-110.538-130.129-6.785-1.103-11.716 6.434-8.005 12.22 10.686 16.659 16.591 36.678 15.772 58.123-2.023 52.932-45.488 95.531-98.449 96.554-16.606.321-32.314-3.389-46.216-10.215-6.26-3.074-13.203 2.681-11.305 9.392 12.732 45.037 48.793 80.276 94.305 91.846l91.103 14.182 46.432-35.803z" fill="#fae88b"/><path d="m370.077 382.887c73.74 0 133.519-59.778 133.519-133.518s-59.778-133.518-133.519-133.518c-60.669 0-111.878 40.467-128.13 95.879-13.998-8.55-30.449-13.479-48.053-13.479-50.986 0-92.318 41.332-92.318 92.318s41.332 92.318 92.318 92.318z" fill="#f7f2f0"/><path d="m144.229 331.379c1.012-50.532 43.132-91.156 93.669-90.42 11.181.163 21.88 2.314 31.76 6.115 8.145 3.133 17.287-.766 20.803-8.754 20.68-46.973 67.631-79.771 122.25-79.771 25.978 0 50.231 7.43 70.741 20.265-23.578-37.801-65.542-62.963-113.375-62.963-60.669 0-111.878 40.467-128.13 95.879-14.298-8.733-31.156-13.688-49.186-13.472-49.55.595-90.162 40.853-91.166 90.396-.756 37.291 20.614 69.679 51.868 84.933-6.179-12.711-9.537-27.058-9.234-42.208z" fill="#f1e9e6"/><path d="m116.783 113.427c-5.013-3.49-9.256-7.679-12.687-12.603-2.396-3.439-7.428-3.605-9.964-.268-3.463 4.557-7.695 8.662-12.623 12.359-3.454 2.59-3.37 7.75.207 10.166 4.911 3.317 9.133 7.417 12.589 12.39 2.412 3.472 7.532 3.472 10.022.056 3.355-4.602 7.579-8.538 12.476-11.961 3.534-2.471 3.52-7.675-.02-10.139z" fill="#f7d348"/><path d="m333.556 357.686-113.95 54.337c-2.181 1.04-2.444 4.039-.478 5.443l24.693 17.638c1.615 1.154 1.786 3.492.354 4.867l-44.975 43.224c-2.369 2.277-.138 6.211 3.032 5.346l119.331-32.545c2.565-.7 3.182-4.055 1.034-5.622l-27.535-20.078c-1.382-1.008-1.716-2.93-.754-4.345l43.237-63.62c1.817-2.676-1.069-6.037-3.989-4.645z" fill="#fae88b"/></g><g><path d="m211.006 390.387c4.143 0 7.5-3.358 7.5-7.5s-3.357-7.5-7.5-7.5h-17.111c-46.769 0-84.818-38.049-84.818-84.818s38.05-84.818 84.818-84.818c15.619 0 30.884 4.281 44.144 12.379.014.009.057.033.064.038 15.952 9.763 28.401 24.728 35.054 42.137 1.142 2.989 3.988 4.825 7.008 4.825.89 0 1.794-.16 2.675-.496 3.869-1.479 5.808-5.813 4.329-9.683-7.133-18.667-19.937-34.926-36.346-46.357 8.051-23.483 23.19-44.497 43.072-59.613 22.055-16.768 48.397-25.63 76.182-25.63 11.904 0 23.693 1.662 35.04 4.939 3.979 1.147 8.137-1.145 9.286-5.124s-1.145-8.137-5.124-9.287c-12.699-3.668-25.889-5.528-39.202-5.528-31.091 0-60.573 9.921-85.26 28.689-3.801 2.89-7.438 5.981-10.917 9.237-.933-20.161-6.239-40.04-15.517-57.857-1.913-3.674-6.443-5.101-10.116-3.188-3.674 1.913-5.102 6.442-3.188 10.116 9.28 17.822 13.985 37.112 13.985 57.333 0 3.451-.156 6.94-.446 10.403-8.854 11.441-15.977 24.196-20.965 37.751-13.565-6.619-28.521-10.084-43.758-10.084-48.307 0-88.705 34.495-97.867 80.145-39.069-12.779-69.716-44.438-80.987-84.31-.047-.166-.096-.337.165-.554.279-.233.468-.14.617-.066 15.526 7.624 32.224 11.329 49.666 10.981 6.982-.135 13.969-.954 20.767-2.435 4.047-.882 6.613-4.877 5.731-8.924s-4.868-6.611-8.925-5.732c-5.845 1.273-11.854 1.978-17.862 2.094-15.014.292-29.404-2.889-42.766-9.449-5.598-2.749-12.048-1.979-16.833 2.009-4.772 3.979-6.688 10.169-4.995 16.156 12.901 45.635 48.456 81.654 93.579 95.356-.068 1.508-.108 3.022-.108 4.546 0 55.04 44.778 99.818 99.818 99.818h17.111z"/><path d="m440.366 127.092c-3.588-2.066-8.175-.834-10.242 2.755s-.834 8.175 2.756 10.243c38.993 22.461 63.216 64.334 63.216 109.279 0 69.487-56.532 126.019-126.02 126.019h-10.23c-4.143 0-7.5 3.358-7.5 7.5s3.357 7.5 7.5 7.5h10.23c77.759 0 141.02-63.261 141.02-141.019 0-50.293-27.102-97.147-70.73-122.277z"/><path d="m112.113 168.07c-3.521 2.182-4.605 6.805-2.424 10.326 1.42 2.291 3.872 3.55 6.382 3.55 1.349 0 2.714-.364 3.944-1.126 30.735-19.051 49.902-51.813 51.271-87.639.851-22.245-5.012-43.842-16.953-62.459-.071-.111-.159-.249.028-.535.182-.275.327-.253.461-.232 28.184 4.581 54.172 18.97 73.178 40.518 2.74 3.106 7.479 3.405 10.586.664 3.106-2.74 3.403-7.479.664-10.585-21.295-24.143-50.424-40.267-82.021-45.402-6.097-.991-12.001 1.617-15.407 6.807-3.41 5.196-3.453 11.659-.114 16.864 10.277 16.022 15.322 34.622 14.591 53.788-1.179 30.832-17.696 59.042-44.186 75.461z"/><path d="m77.518 129.296c4.204 2.839 7.779 6.357 10.627 10.454 2.502 3.601 6.617 5.781 11.008 5.831.052 0 .103.001.154.001 4.368 0 8.5-2.1 11.079-5.637 2.745-3.766 6.248-7.112 10.711-10.23 3.666-2.562 5.853-6.755 5.849-11.218-.004-4.469-2.2-8.665-5.876-11.224-.001 0-.001 0-.001 0-4.304-2.996-7.943-6.607-10.819-10.736-2.506-3.596-6.61-5.796-10.98-5.887-4.43-.079-8.448 1.867-11.109 5.369-2.969 3.907-6.721 7.574-11.152 10.897-3.572 2.68-5.639 6.93-5.528 11.371.107 4.413 2.364 8.529 6.037 11.009zm21.452-22.757c3.358 4.513 7.392 8.525 12.026 11.964-4.557 3.365-8.46 7.108-11.636 11.158-3.365-4.506-7.391-8.459-11.999-11.783 4.441-3.48 8.334-7.283 11.609-11.339z"/><path d="m82.308 48.044h5.531v5.531c0 4.142 3.357 7.5 7.5 7.5s7.5-3.358 7.5-7.5v-5.531h5.53c4.143 0 7.5-3.358 7.5-7.5s-3.357-7.5-7.5-7.5h-5.53v-5.531c0-4.142-3.357-7.5-7.5-7.5s-7.5 3.358-7.5 7.5v5.531h-5.531c-4.143 0-7.5 3.358-7.5 7.5s3.357 7.5 7.5 7.5z"/><path d="m18.293 127.649h5.531v5.531c0 4.142 3.357 7.5 7.5 7.5s7.5-3.358 7.5-7.5v-5.531h5.53c4.143 0 7.5-3.358 7.5-7.5s-3.357-7.5-7.5-7.5h-5.53v-5.531c0-4.142-3.357-7.5-7.5-7.5s-7.5 3.358-7.5 7.5v5.531h-5.531c-4.143 0-7.5 3.358-7.5 7.5s3.357 7.5 7.5 7.5z"/><path d="m330.327 350.917-113.95 54.337c-3.445 1.644-5.702 4.895-6.036 8.698s1.321 7.398 4.428 9.618l20.45 14.607-41.218 39.611c-3.52 3.384-4.295 8.713-1.886 12.959 1.931 3.404 5.508 5.408 9.276 5.408.934 0 1.879-.123 2.813-.378l119.33-32.545c3.993-1.088 6.939-4.293 7.688-8.364s-.863-8.115-4.208-10.553l-24.152-17.61 40.882-60.156c2.746-4.039 2.454-9.243-.728-12.95-3.179-3.707-8.278-4.786-12.689-2.682zm-42.222 70.817c-3.255 4.787-2.142 11.21 2.537 14.622l20.261 14.773-94.265 25.709 32.733-31.458c2.296-2.206 3.48-5.292 3.25-8.467-.23-3.176-1.849-6.059-4.44-7.911l-18.718-13.37 92.893-44.295z"/></g></g></svg>