<svg id="Capa_1" enable-background="new 0 0 511.716 511.716" height="512" viewBox="0 0 511.716 511.716" width="512" xmlns="http://www.w3.org/2000/svg"><g><g><path d="m230.306 87.392c-.935-38.379-28.106-71.614-65.976-79.857-.892-.194-1.71.531-1.662 1.443.232 4.454.091 8.987-.465 13.566-5.21 42.851-44.171 73.366-87.022 68.156-3.771-.458-7.441-1.192-11.003-2.156-.881-.239-1.762.409-1.76 1.322.058 21.473 8.356 41.436 22.172 56.479l42.763 32.371 102.954-33.985v-57.339z" fill="#fae88b"/><path d="m347.834 338.023c84.45 0 152.91-68.924 152.91-153.946s-68.46-153.946-152.91-153.946c-69.48 0-128.126 46.658-146.739 110.548-16.031-9.858-34.872-15.541-55.031-15.541-58.391 0-105.726 47.656-105.726 106.442 0 58.787 47.335 106.442 105.726 106.442h201.77z" fill="#f7f2f0"/><path d="m89.186 278.634c1.159-58.264 49.396-105.102 107.273-104.254 12.804.188 25.057 2.668 36.373 7.05 9.328 3.613 19.798-.884 23.825-10.093 23.684-54.16 77.454-91.975 140.004-91.975 29.751 0 57.526 8.567 81.014 23.365-27.002-43.584-75.061-72.596-129.841-72.596-69.48 0-128.126 46.658-146.738 110.548-16.375-10.069-35.68-15.783-56.329-15.533-56.747.686-103.257 47.103-104.407 104.226-.865 42.996 23.608 80.34 59.401 97.927-7.077-14.655-10.923-31.197-10.575-48.665z" fill="#f1e9e6"/><path d="m465.53 280.024c-.154-.004-.307-.006-.46-.008-8.667-.097-15.626-7.133-15.402-15.798.063-2.444.005-4.918-.182-7.418-2.737-36.694-32.859-65.907-69.62-67.515-41.869-1.831-76.389 31.571-76.389 73.036 0 4.405.393 8.717 1.141 12.908.148.83-.483 1.578-1.326 1.577-.006 0-.011 0-.017 0-20.57 0-37.291 16.479-37.682 36.955-.404 21.129 17.294 38.424 38.427 38.424h160.637c20.267 0 36.632-16.708 36.072-37.102-.523-19.038-16.158-34.609-35.199-35.059z" fill="#f1e9e6"/><path d="m143.132 278.917h-1.435c.205-2.111.317-4.25.317-6.415 0-36.186-29.334-65.52-65.52-65.52s-65.52 29.334-65.52 65.52 29.334 65.521 65.52 65.521h66.639c16.322 0 29.553-13.231 29.553-29.553-.001-16.322-13.233-29.553-29.554-29.553z" fill="#e1d3ce"/><g fill="#d4f2f6"><path d="m320.724 432.367c-3.128 7.958-12.114 11.873-20.072 8.745s-11.873-12.114-8.745-20.072c1.966-5.001 11.752-13.184 18.753-18.574 3.363-2.589 8.277-.658 8.977 3.529 1.457 8.714 3.053 21.37 1.087 26.372z"/><path d="m397.654 416.996c-3.128 7.958-12.114 11.873-20.072 8.745s-11.873-12.114-8.745-20.072c1.966-5.001 11.752-13.184 18.753-18.574 3.363-2.589 8.277-.658 8.977 3.529 1.457 8.714 3.053 21.371 1.087 26.372z"/><path d="m366.214 494.386c-3.128 7.958-12.114 11.873-20.072 8.745s-11.873-12.114-8.745-20.072c1.966-5.001 11.752-13.184 18.753-18.574 3.363-2.589 8.277-.658 8.977 3.529 1.457 8.714 3.053 21.37 1.087 26.372z"/></g></g><g><path d="m247.38 338.023c0-4.143-3.358-7.5-7.5-7.5h-45.078c-4.142 0-7.5 3.357-7.5 7.5s3.358 7.5 7.5 7.5h45.078c4.142 0 7.5-3.357 7.5-7.5z"/><path d="m50.746 186.038c1.181.683 2.47 1.006 3.743 1.006 2.592 0 5.113-1.346 6.502-3.752 17.514-30.342 50.131-49.191 85.122-49.191 18.087 0 35.762 4.957 51.114 14.335.018.011.07.04.077.044 17.057 10.439 30.376 25.583 38.518 43.795 1.246 2.788 3.983 4.441 6.852 4.441 1.022 0 2.063-.211 3.057-.655 3.781-1.69 5.477-6.126 3.786-9.907-8.592-19.219-22.195-35.457-39.513-47.296 9.221-27.401 26.806-51.938 49.96-69.541 25.445-19.345 55.838-29.57 87.893-29.57 32.797 0 63.753 10.659 89.522 30.826 3.263 2.554 7.977 1.979 10.528-1.284 2.553-3.262 1.978-7.976-1.284-10.528-28.434-22.252-62.587-34.014-98.767-34.014-35.361 0-68.894 11.283-96.972 32.63-5.313 4.039-10.342 8.428-15.095 13.089-3.053-14.243-9.487-27.727-18.83-39.071-12.995-15.777-31.119-26.854-51.032-31.188-2.718-.592-5.497.102-7.62 1.905-2.102 1.785-3.272 4.497-3.128 7.256.213 4.09.072 8.218-.421 12.27-2.581 21.226-14.467 39.935-32.611 51.329-3.508 2.203-4.565 6.832-2.363 10.34 2.202 3.507 6.831 4.567 10.34 2.363 21.989-13.81 36.396-36.488 39.524-62.222.264-2.176.445-4.37.542-6.569 29.738 9.659 50.662 36.496 52.503 68.063-11.075 13.847-19.882 29.473-25.867 46.131-15.67-7.855-33.022-11.973-50.712-11.973-21.561 0-42.335 6.212-60.09 17.333-8.792-11.298-14.213-24.73-15.693-38.864 1.316.224 2.632.416 3.943.575 7.545.918 15.199.824 22.747-.276 4.099-.599 6.937-4.406 6.338-8.505-.598-4.098-4.4-6.935-8.504-6.338-6.23.909-12.545.986-18.771.229-3.303-.401-6.65-1.058-9.949-1.951-2.667-.721-5.564-.147-7.751 1.532-2.21 1.696-3.474 4.267-3.467 7.051.054 20.095 6.746 39.447 18.957 55.323-10.234 8.465-19.051 18.765-25.874 30.584-2.071 3.587-.841 8.174 2.746 10.245z"/><path d="m493.244 185.134c0 22.704-5.096 44.459-15.145 64.659-1.845 3.709-.334 8.211 3.374 10.056 1.073.534 2.213.787 3.335.787 2.757 0 5.41-1.526 6.721-4.161 11.091-22.295 16.715-46.298 16.715-71.341 0-37.491-13.216-73.971-37.213-102.719-2.655-3.18-7.385-3.604-10.564-.951-3.18 2.654-3.605 7.384-.951 10.564 21.749 26.056 33.728 59.121 33.728 93.106z"/><path d="m465.673 272.525-.519-.009c-2.227-.024-4.288-.905-5.806-2.479-1.462-1.518-2.237-3.515-2.183-5.627.068-2.7.001-5.447-.2-8.167-3.033-40.663-36.039-72.67-76.772-74.451-23.198-1.014-45.684 7.99-61.739 24.704-2.869 2.986-2.773 7.734.214 10.604 2.986 2.868 7.734 2.774 10.604-.214 13.068-13.604 31.385-20.936 50.266-20.108 33.145 1.449 60.001 27.493 62.469 60.577.165 2.223.22 4.467.164 6.67-.159 6.157 2.105 11.988 6.377 16.421 4.326 4.489 10.164 7 16.475 7.07l.329.006c14.963.354 27.47 12.81 27.88 27.768.214 7.797-2.656 15.163-8.083 20.741-5.43 5.581-12.707 8.654-20.491 8.654h-160.638c-8.307 0-16.434-3.428-22.298-9.404-5.718-5.828-8.782-13.42-8.63-21.376.312-16.321 13.853-29.599 30.2-29.599 2.627 0 5.101-1.152 6.784-3.162 1.684-2.009 2.386-4.644 1.925-7.234-.68-3.809-1.024-7.708-1.024-11.589 0-7.105 1.146-14.125 3.405-20.863 1.316-3.927-.8-8.178-4.728-9.495-3.924-1.313-8.178.8-9.495 4.728-2.775 8.277-4.183 16.901-4.183 25.631 0 2.51.117 5.025.351 7.527-21.227 3.337-37.811 21.694-38.233 43.77-.23 12.017 4.359 23.44 12.92 32.167 8.666 8.834 20.696 13.9 33.005 13.9h160.638c11.869 0 22.964-4.686 31.242-13.194 8.275-8.506 12.652-19.733 12.326-31.613-.636-23.201-19.312-41.804-42.552-42.354z"/><path d="m149.511 271.967c-.29-40.018-32.934-72.485-73.018-72.485-40.264 0-73.021 32.757-73.021 73.021s32.757 73.021 73.021 73.021h66.639c20.431 0 37.053-16.622 37.053-37.053 0-18.257-13.272-33.471-30.674-36.504zm-6.379 58.556h-66.639c-31.993 0-58.021-26.028-58.021-58.021s26.028-58.021 58.021-58.021c31.992 0 58.02 26.028 58.02 58.021 0 1.854-.095 3.769-.281 5.69-.205 2.104.49 4.198 1.911 5.765s3.438 2.46 5.554 2.46h1.435c12.16 0 22.053 9.893 22.053 22.053s-9.893 22.053-22.053 22.053z"/><path d="m327.035 404.757c-.768-4.59-3.813-8.346-8.145-10.049-4.33-1.701-9.118-1.023-12.806 1.815-16.194 12.469-19.831 18.397-21.158 21.772-4.635 11.793 1.188 25.159 12.982 29.796 2.751 1.081 5.587 1.594 8.379 1.594 9.175 0 17.862-5.534 21.417-14.575 1.327-3.375 2.701-10.193-.669-30.353zm-13.292 24.869c-1.611 4.095-6.253 6.117-10.347 4.506-4.097-1.609-6.119-6.252-4.511-10.345.539-1.307 4.143-5.709 13.854-13.426 1.857 12.262 1.5 17.939 1.004 19.265z"/><path d="m395.821 379.339c-4.332-1.705-9.121-1.024-12.806 1.813-16.193 12.467-19.831 18.397-21.158 21.773-2.245 5.713-2.132 11.959.32 17.586 2.451 5.628 6.948 9.964 12.661 12.21 2.725 1.07 5.57 1.605 8.413 1.605 3.117 0 6.229-.644 9.174-1.926 5.628-2.452 9.964-6.949 12.209-12.662 1.326-3.376 2.7-10.194-.67-30.351-.766-4.588-3.81-8.345-8.143-10.048zm-5.149 34.916c-.779 1.982-2.285 3.544-4.238 4.395-1.955.853-4.124.892-6.108.111-1.984-.779-3.546-2.285-4.397-4.24-.852-1.954-.891-4.123-.112-6.104.539-1.308 4.143-5.71 13.853-13.426 1.856 12.26 1.498 17.937 1.002 19.264z"/><path d="m364.381 456.729c-4.332-1.704-9.12-1.025-12.807 1.813-16.193 12.467-19.831 18.397-21.158 21.773-2.245 5.713-2.132 11.959.32 17.587s6.949 9.964 12.662 12.209c2.725 1.071 5.57 1.605 8.413 1.605 3.116 0 6.229-.644 9.173-1.926 5.628-2.451 9.964-6.948 12.21-12.661 1.326-3.375 2.7-10.194-.67-30.354-.767-4.588-3.812-8.344-8.143-10.046zm-5.148 34.915c-.779 1.983-2.285 3.544-4.239 4.396-1.954.851-4.124.891-6.108.11-1.983-.779-3.545-2.285-4.396-4.239-.852-1.955-.892-4.124-.113-6.104.539-1.309 4.144-5.712 13.854-13.427 1.855 12.26 1.498 17.938 1.002 19.264z"/><path d="m282.127 372.197c-3.413-2.352-8.081-1.493-10.433 1.915l-66.834 96.896c-2.352 3.41-1.494 8.081 1.916 10.433 1.3.896 2.783 1.327 4.251 1.327 2.383 0 4.726-1.133 6.181-3.242l66.834-96.896c2.352-3.411 1.495-8.082-1.915-10.433z"/><path d="m285.21 464.623c-3.412-2.353-8.081-1.494-10.433 1.915l-10.008 14.509c-2.352 3.41-1.494 8.081 1.915 10.433 1.301.896 2.783 1.327 4.252 1.327 2.383 0 4.726-1.133 6.181-3.242l10.008-14.509c2.352-3.411 1.495-8.082-1.915-10.433z"/><path d="m449.867 429.822c-3.411-2.352-8.081-1.495-10.433 1.915l-27.088 39.271c-2.352 3.41-1.494 8.081 1.915 10.433 1.301.896 2.783 1.327 4.252 1.327 2.383 0 4.726-1.133 6.181-3.242l27.088-39.271c2.351-3.411 1.494-8.082-1.915-10.433z"/><path d="m489.613 372.197c-3.412-2.352-8.082-1.493-10.433 1.915l-12.157 17.626c-2.352 3.41-1.494 8.081 1.915 10.433 1.301.896 2.784 1.327 4.252 1.327 2.383 0 4.726-1.133 6.181-3.242l12.157-17.626c2.351-3.411 1.494-8.082-1.915-10.433z"/></g></g></svg>