<svg id="Capa_1" enable-background="new 0 0 512.739 512.739" height="512" viewBox="0 0 512.739 512.739" width="512" xmlns="http://www.w3.org/2000/svg"><g><g><g><path d="m366.225 434.999c-30.866 25.687-68.782 43.725-111.286 50.639-103.53 16.84-202.189-37.46-246.134-126.978-4.712-9.599 4.26-20.181 14.467-16.992 17.046 5.326 35.138 8.286 53.891 8.49 60.126.657 114.169-27.393 149.033-71.322l23.884-39.03c5.622-12.358 9.94-25.426 12.773-39.03l3.911-39.03c-.211-44.773-16.101-85.84-42.476-117.98-6.751-8.227-.217-20.481 10.397-19.708 85.483 6.223 160.984 59.544 195.58 137.689l13.258 39.03c1.433 5.885 2.662 11.864 3.651 17.943 1.148 7.058 1.947 14.09 2.445 21.087l-.502 39.03c-1.301 13.311-3.742 26.36-7.242 39.03l-14.671 39.03c-6.648 13.788-14.623 26.878-23.803 39.072z" fill="#fee97d"/></g><g><path d="m88.997 349.912c-3.912.203-7.866.29-11.835.247-18.753-.205-36.845-3.164-53.891-8.49-10.206-3.189-19.179 7.394-14.467 16.992 43.945 89.517 142.604 143.818 246.134 126.978 22.832-3.714 44.351-10.643 64.153-20.238-95.1 11.638-184.801-36.226-230.094-115.489z" fill="#fee45a"/></g><path d="m189.899 173.571c-7.787-5.051-14.188-11.358-19.112-19.005-2.295-3.564-7.502-3.625-9.96-.172-4.988 7.008-11.384 13.19-19.026 18.641-3.518 2.509-3.37 7.855.292 10.149 7.622 4.773 14.007 10.953 18.985 18.736 2.294 3.586 7.553 3.599 9.911.054 4.818-7.245 11.287-13.226 18.964-18.284 3.665-2.414 3.629-7.73-.054-10.119z" fill="#fee97d"/><path d="m73.706 60.812c-7.787-5.051-14.188-11.358-19.112-19.005-2.295-3.564-7.502-3.625-9.96-.172-4.988 7.008-11.384 13.19-19.026 18.641-3.518 2.509-3.37 7.855.292 10.149 7.622 4.773 14.007 10.953 18.985 18.736 2.294 3.586 7.553 3.599 9.911.054 4.818-7.245 11.287-13.226 18.964-18.284 3.665-2.415 3.629-7.731-.054-10.119z" fill="#fee97d"/><g fill="#dcf5f8"><path d="m485.724 395.969h-94.689c-10.789 0-19.536-8.747-19.536-19.536 0-10.789 8.747-19.536 19.536-19.536h65.023c10.582 0 19.594-8.229 19.97-18.804.395-11.102-8.488-20.226-19.502-20.226h-93.882c-10.778 0-19.515-8.737-19.515-19.515 0-10.778 8.737-19.515 19.515-19.515h100.509c10.582 0 19.594-8.229 19.97-18.804.395-11.102-8.488-20.226-19.502-20.226h-280.457c-10.582 0-19.594 8.228-19.97 18.803-.395 11.102 8.488 20.227 19.502 20.227h72.997c10.778 0 19.515 8.737 19.515 19.515 0 10.778-8.737 19.515-19.515 19.515h-16.456c-10.582 0-19.594 8.229-19.97 18.804-.395 11.102 8.488 20.226 19.502 20.226h65.674c10.789 0 19.536 8.747 19.536 19.536 0 10.789-8.747 19.536-19.536 19.536h-27.635c-10.778 0-19.515 8.737-19.515 19.515 0 10.778 8.737 19.515 19.515 19.515h208.915c10.778 0 19.515-8.737 19.515-19.515 0-10.778-8.737-19.515-19.514-19.515z"/><path d="m383.83 200.776h101.785c10.778 0 19.515-8.737 19.515-19.515 0-10.778-8.737-19.515-19.515-19.515h-101.785c-10.778 0-19.515 8.737-19.515 19.515 0 10.778 8.737 19.515 19.515 19.515z"/><path d="m249.586 200.776h55.818c10.778 0 19.515-8.737 19.515-19.515 0-10.778-8.737-19.515-19.515-19.515h-55.818c-10.778 0-19.515 8.737-19.515 19.515 0 10.778 8.737 19.515 19.515 19.515z"/></g></g><g><path d="m138.112 189.54c6.899 4.32 12.344 9.691 16.648 16.422 2.441 3.816 6.612 6.119 11.157 6.159h.121c4.518 0 8.696-2.234 11.195-5.993 4.042-6.079 9.553-11.37 16.846-16.175 3.837-2.528 6.119-6.77 6.102-11.345-.016-4.586-2.334-8.821-6.201-11.329-6.936-4.499-12.618-10.143-16.887-16.773-2.414-3.749-6.527-6.05-11.002-6.153-4.503-.119-8.763 2.022-11.375 5.692-4.38 6.154-10.191 11.834-17.27 16.884-3.699 2.637-5.826 6.935-5.689 11.495.137 4.554 2.512 8.709 6.355 11.116zm27.579-29.098c4.871 7.067 11.02 13.18 18.318 18.212-7.396 5.12-13.293 10.789-17.932 17.239-4.886-7.085-11.02-13.109-18.277-17.95 7.082-5.261 13.087-11.135 17.891-17.501z"/><path d="m21.919 76.78c6.898 4.32 12.343 9.691 16.648 16.422 2.441 3.816 6.612 6.118 11.156 6.159h.122c4.518 0 8.696-2.234 11.196-5.993 4.042-6.079 9.553-11.37 16.846-16.175 3.837-2.528 6.119-6.77 6.102-11.345-.016-4.586-2.334-8.821-6.201-11.329-6.937-4.498-12.619-10.142-16.888-16.773-2.414-3.749-6.527-6.05-11.002-6.153-4.503-.129-8.763 2.022-11.375 5.692-4.381 6.155-10.192 11.836-17.27 16.884-3.699 2.637-5.826 6.935-5.689 11.495.137 4.554 2.512 8.709 6.355 11.116zm27.579-29.097c4.871 7.067 11.02 13.18 18.318 18.212-7.397 5.12-13.294 10.789-17.933 17.239-4.887-7.085-11.021-13.109-18.276-17.95 7.081-5.261 13.085-11.134 17.891-17.501z"/><path d="m145.75 69.671h5.787v5.786c0 4.143 3.358 7.5 7.5 7.5s7.5-3.357 7.5-7.5v-5.786h5.786c4.142 0 7.5-3.357 7.5-7.5s-3.358-7.5-7.5-7.5h-5.786v-5.786c0-4.143-3.358-7.5-7.5-7.5s-7.5 3.357-7.5 7.5v5.786h-5.787c-4.142 0-7.5 3.357-7.5 7.5s3.358 7.5 7.5 7.5z"/><path d="m53.909 214.305c4.142 0 7.5-3.357 7.5-7.5v-5.786h5.786c4.142 0 7.5-3.357 7.5-7.5s-3.358-7.5-7.5-7.5h-5.786v-5.787c0-4.143-3.358-7.5-7.5-7.5s-7.5 3.357-7.5 7.5v5.787h-5.786c-4.142 0-7.5 3.357-7.5 7.5s3.358 7.5 7.5 7.5h5.786v5.786c0 4.142 3.358 7.5 7.5 7.5z"/><path d="m485.724 388.469h-67.877c5.119-7.744 9.805-15.79 14.001-24.071h24.21c14.882 0 26.946-11.438 27.465-26.038.263-7.405-2.421-14.414-7.558-19.736-5.138-5.324-12.042-8.257-19.44-8.257h-5.012c1.838-7.926 3.271-15.962 4.292-24.029h7.346c14.882 0 26.946-11.437 27.465-26.037.263-7.405-2.42-14.414-7.557-19.736-5.139-5.324-12.042-8.257-19.44-8.257h-7.127c-.497-5.003-1.131-9.958-1.917-14.791-.497-3.053-1.072-6.14-1.706-9.239h32.746c14.896 0 27.015-12.119 27.015-27.015s-12.119-27.016-27.015-27.016h-50.532c-5.535-11.832-12.074-23.269-19.486-34.055-2.346-3.414-7.015-4.28-10.429-1.933-3.414 2.346-4.279 7.015-1.933 10.429 5.61 8.163 10.68 16.727 15.156 25.559h-34.561c-14.896 0-27.015 12.119-27.015 27.016 0 14.896 12.119 27.015 27.015 27.015h53.715c.849 3.91 1.601 7.81 2.225 11.647.659 4.049 1.196 8.195 1.637 12.383h-14.205c-4.142 0-7.5 3.357-7.5 7.5s3.358 7.5 7.5 7.5h36.418c3.29 0 6.361 1.305 8.647 3.673 2.284 2.367 3.478 5.487 3.36 8.787-.227 6.38-5.823 11.57-12.475 11.57h-100.509c-14.896 0-27.015 12.119-27.015 27.015s12.119 27.015 27.015 27.015h93.882c3.29 0 6.361 1.305 8.647 3.673 2.284 2.367 3.478 5.487 3.36 8.787-.227 6.381-5.823 11.571-12.475 11.571h-65.023c-14.908 0-27.036 12.128-27.036 27.035 0 14.908 12.128 27.036 27.036 27.036h94.689c6.625 0 12.015 5.391 12.015 12.016s-5.39 12.015-12.015 12.015h-208.914c-6.625 0-12.015-5.391-12.015-12.016s5.39-12.015 12.015-12.015h27.635c14.908 0 27.036-12.128 27.036-27.036 0-14.907-12.128-27.035-27.036-27.035h-65.674c-3.29 0-6.361-1.305-8.647-3.673-2.284-2.367-3.478-5.487-3.36-8.788.227-6.38 5.823-11.57 12.475-11.57h16.457c14.896 0 27.015-12.119 27.015-27.015s-12.119-27.015-27.015-27.015h-72.998c-3.29 0-6.361-1.305-8.646-3.673-2.285-2.367-3.478-5.488-3.361-8.788.227-6.38 5.823-11.569 12.475-11.569h212.075c4.142 0 7.5-3.357 7.5-7.5s-3.358-7.5-7.5-7.5h-133.899c3.02-7.842 5.527-15.877 7.499-24.03h36.564c14.896 0 27.015-12.119 27.015-27.015s-12.119-27.016-27.015-27.016h-31.326c-1.821-42.035-17.291-82.701-43.992-115.238-1.69-2.06-.916-4.127-.505-4.921.337-.651 1.665-2.768 4.56-2.549 57.534 4.188 110.752 30.081 149.853 72.909 2.792 3.06 7.537 3.273 10.596.482 3.059-2.793 3.275-7.537.482-10.596-41.699-45.674-98.465-73.288-159.842-77.757-8-.589-15.273 3.48-18.966 10.607-3.649 7.041-2.796 15.218 2.227 21.339 24.507 29.864 38.768 67.15 40.578 105.723h-9.482c-14.896 0-27.015 12.119-27.015 27.016 0 14.896 12.119 27.015 27.015 27.015h3.788c-2.157 8.183-4.895 16.224-8.195 24.03h-62.014c-14.882 0-26.946 11.437-27.465 26.036-.263 7.405 2.421 14.415 7.558 19.738 5.138 5.323 12.042 8.256 19.44 8.256h27.034c-20.999 22.169-47.05 38.612-76.194 47.902-3.946 1.258-6.126 5.477-4.868 9.424 1.017 3.188 3.966 5.224 7.144 5.224.754 0 1.522-.115 2.28-.356 35.948-11.459 67.563-32.932 91.668-62.193h25.934c6.625 0 12.015 5.39 12.015 12.015s-5.39 12.015-12.015 12.015h-16.457c-14.634 0-26.955 11.681-27.465 26.038-.263 7.405 2.421 14.414 7.558 19.736 5.138 5.324 12.042 8.257 19.44 8.257h65.674c6.637 0 12.036 5.398 12.036 12.035s-5.399 12.036-12.036 12.036h-27.635c-14.896 0-27.015 12.119-27.015 27.016 0 14.896 12.119 27.015 27.015 27.015h66.955c-26.923 18.223-57.657 30.471-90.028 35.736-48.601 7.903-97.26.007-140.717-22.841-42.043-22.104-76.662-57.633-97.48-100.04-1.241-2.527.03-4.439.634-5.144.59-.689 2.248-2.199 4.863-1.385 18.089 5.652 36.946 8.624 56.045 8.832 9.524.108 19.125-.496 28.544-1.785 4.104-.562 6.975-4.344 6.414-8.447-.561-4.104-4.338-6.976-8.448-6.414-8.693 1.189-17.56 1.747-26.346 1.646-17.637-.191-35.043-2.934-51.736-8.149-7.605-2.374-15.547-.1-20.725 5.94-5.206 6.073-6.244 14.317-2.71 21.516 22.208 45.238 59.13 83.135 103.965 106.707 34.688 18.237 72.478 27.547 111.024 27.546 12.971 0 26.03-1.055 39.082-3.178 41.43-6.739 80.355-24.201 112.759-50.541h116.821c14.896 0 27.015-12.119 27.015-27.016-.004-14.896-12.123-27.015-27.019-27.015zm-113.909-207.207c0-6.625 5.39-12.016 12.015-12.016h101.786c6.625 0 12.015 5.391 12.015 12.016s-5.39 12.015-12.015 12.015h-101.786c-6.625-.001-12.015-5.39-12.015-12.015zm-21.187 117.09c0-6.625 5.39-12.015 12.015-12.015h78.032c-1.094 8.081-2.628 16.12-4.595 24.029h-73.437c-6.625 0-12.015-5.389-12.015-12.014zm28.37 78.081c0-6.637 5.399-12.035 12.036-12.035h23.838c-4.582 8.339-9.688 16.394-15.269 24.071h-8.569c-6.636 0-12.036-5.4-12.036-12.036zm-141.427-195.171c0-6.625 5.39-12.016 12.015-12.016h55.818c6.625 0 12.015 5.391 12.015 12.016s-5.39 12.015-12.015 12.015h-55.818c-6.625-.001-12.015-5.39-12.015-12.015z"/></g></g></svg>